<?xml version="1.0" encoding="UTF-8"?>
<svg viewBox="-833.648 -518.000 4034.873 526.000" xmlns="http://www.w3.org/2000/svg">
  <g transform="translate(277.080 -333.900) scale(0.637023)">
    <path d="M -515.787 -142.888 A 13.333 13.333 0 0 0 -525.696 -165.143 L -1141.884 -165.143 A 13.333 13.333 0 0 0 -1154.064 -146.387 L -950.187 311.530 A 13.333 13.333 0 0 0 -928.098 315.029 Z" fill="#E6E6E6"/>
    <path d="M -580.261 -160.749 A 15.000 15.000 0 0 0 -591.408 -185.786 L -1284.619 -185.786 A 15.000 15.000 0 0 0 -1298.323 -164.685 L -1068.960 350.471 A 15.000 15.000 0 0 0 -1044.110 354.407 Z" fill="#E0E0E0"/>
    <path d="M -663.155 -183.713 A 17.143 17.143 0 0 0 -675.895 -212.327 L -1468.136 -212.327 A 17.143 17.143 0 0 0 -1483.797 -188.212 L -1221.669 400.539 A 17.143 17.143 0 0 0 -1193.268 405.037 Z" fill="#C9C9C9"/>
    <path d="M -773.681 -214.332 A 20.000 20.000 0 0 0 -788.544 -247.715 L -1712.826 -247.715 A 20.000 20.000 0 0 0 -1731.097 -219.580 L -1425.280 467.295 A 20.000 20.000 0 0 0 -1392.146 472.543 Z" fill="#141414"/>
  </g>
  <path d="M 283.0 8.0 L 272.9 7.9 L 263.1 7.7 L 253.6 7.4 L 244.4 6.9 L 235.6 6.2 L 227.0 5.4 L 218.8 4.5 L 210.8 3.4 L 203.2 2.2 L 195.9 0.8 L 188.9 -0.7 L 182.2 -2.3 L 175.7 -4.2 L 169.5 -6.2 L 163.5 -8.3 L 157.7 -10.6 L 152.1 -13.1 L 146.8 -15.8 L 141.7 -18.6 L 136.8 -21.6 L 132.1 -24.7 L 127.7 -28.0 L 123.5 -31.5 L 119.5 -35.1 L 115.7 -38.9 L 112.1 -42.9 L 108.7 -47.0 L 105.4 -51.2 L 102.4 -55.6 L 99.5 -60.2 L 96.9 -64.9 L 94.4 -69.7 L 93.2 -72.2 L 91.0 -77.3 L 89.0 -82.5 L 87.1 -87.9 L 84.5 -96.4 L 83.0 -102.3 L 80.8 -111.5 L 79.4 -117.9 L 77.6 -127.8 L 76.1 -138.2 L 75.2 -145.4 L 74.4 -152.7 L 73.3 -164.2 L 72.4 -176.0 L 71.7 -188.2 L 71.1 -200.7 L 70.6 -213.7 L 70.3 -227.1 L 70.0 -245.5 L 70.0 -260.0 L 70.2 -274.7 L 70.5 -289.0 L 70.9 -302.7 L 71.6 -315.9 L 72.4 -328.7 L 73.4 -340.9 L 74.6 -352.7 L 75.9 -364.0 L 77.0 -371.3 L 78.2 -378.4 L 80.1 -388.7 L 82.4 -398.6 L 84.1 -405.0 L 85.8 -411.2 L 87.7 -417.2 L 90.8 -425.9 L 94.2 -434.2 L 95.3 -436.9 L 97.8 -442.1 L 99.1 -444.6 L 101.9 -449.5 L 104.8 -454.2 L 107.8 -458.7 L 111.1 -463.0 L 112.7 -465.0 L 114.4 -467.1 L 118.0 -471.0 L 121.6 -474.7 L 123.5 -476.5 L 125.5 -478.2 L 129.5 -481.5 L 133.7 -484.6 L 135.9 -486.2 L 140.3 -489.1 L 145.0 -491.9 L 147.4 -493.2 L 152.4 -495.8 L 157.6 -498.2 L 160.2 -499.4 L 165.7 -501.6 L 171.3 -503.7 L 180.2 -506.5 L 186.4 -508.2 L 192.7 -509.8 L 202.7 -511.9 L 213.2 -513.6 L 224.4 -515.1 L 232.1 -515.9 L 240.0 -516.6 L 252.5 -517.4 L 265.5 -517.8 L 274.4 -518.0 L 282.1 -518.0 L 291.6 -517.9 L 301.2 -517.7 L 317.5 -517.0 L 327.4 -516.5 L 337.5 -515.9 L 347.7 -515.1 L 357.9 -514.2 L 367.8 -513.2 L 377.3 -512.1 L 392.0 -510.2 L 400.3 -508.9 L 405.5 -508.0 L 413.0 -506.5 L 420.0 -505.0 L 420.0 -446.0 L 408.7 -448.1 L 396.4 -450.0 L 383.1 -451.7 L 369.0 -453.2 L 354.0 -454.5 L 336.4 -455.7 L 322.4 -456.4 L 308.9 -456.9 L 296.0 -457.0 L 283.3 -456.9 L 271.2 -456.4 L 259.8 -455.7 L 249.0 -454.7 L 238.9 -453.4 L 229.4 -451.8 L 220.5 -449.9 L 215.0 -448.5 L 212.3 -447.7 L 207.2 -446.1 L 202.3 -444.2 L 197.6 -442.1 L 195.3 -441.0 L 193.1 -439.9 L 188.9 -437.4 L 184.9 -434.7 L 181.2 -431.9 L 177.6 -428.8 L 176.0 -427.2 L 174.4 -425.6 L 171.3 -422.1 L 168.5 -418.5 L 165.9 -414.6 L 164.6 -412.6 L 162.2 -408.3 L 161.1 -406.1 L 158.9 -401.4 L 156.8 -396.4 L 155.8 -393.8 L 154.0 -388.4 L 153.2 -385.7 L 151.5 -379.9 L 150.1 -373.8 L 148.1 -364.2 L 147.0 -357.5 L 145.5 -346.8 L 144.3 -335.4 L 143.2 -323.1 L 142.6 -314.6 L 141.9 -301.1 L 141.4 -286.8 L 141.1 -271.8 L 141.0 -256.0 L 141.0 -244.9 L 141.2 -234.1 L 141.6 -218.8 L 142.1 -204.2 L 142.9 -190.5 L 143.6 -181.9 L 144.7 -169.6 L 146.0 -158.1 L 147.0 -151.0 L 148.1 -144.2 L 149.4 -137.6 L 150.8 -131.4 L 152.4 -125.4 L 153.2 -122.5 L 155.0 -117.0 L 157.0 -111.7 L 159.1 -106.7 L 161.3 -102.0 L 163.7 -97.5 L 166.3 -93.4 L 169.0 -89.5 L 171.9 -85.9 L 175.0 -82.4 L 178.4 -79.2 L 182.0 -76.2 L 185.8 -73.5 L 189.9 -70.9 L 194.2 -68.5 L 198.8 -66.4 L 203.5 -64.4 L 208.5 -62.7 L 213.8 -61.2 L 219.3 -59.9 L 225.1 -58.7 L 234.3 -57.1 L 240.9 -56.2 L 247.8 -55.4 L 254.9 -54.7 L 262.4 -54.1 L 274.3 -53.5 L 282.5 -53.2 L 295.5 -53.0 L 305.2 -53.0 L 315.9 -53.2 L 326.8 -53.6 L 338.0 -54.1 L 349.4 -54.8 L 361.1 -55.7 L 372.8 -56.8 L 384.0 -58.0 L 394.9 -59.3 L 405.4 -60.8 L 415.4 -62.3 L 425.0 -64.0 L 425.0 -5.0 L 418.2 -3.5 L 413.4 -2.5 L 405.9 -1.1 L 397.8 0.2 L 389.2 1.4 L 383.2 2.1 L 373.8 3.2 L 363.9 4.2 L 353.6 5.1 L 343.4 5.9 L 333.2 6.5 L 323.1 7.0 L 313.0 7.5 L 302.9 7.8 L 292.9 7.9 L 283.0 8.0 Z M 778.0 8.0 L 766.9 7.9 L 756.1 7.8 L 745.6 7.5 L 735.5 7.2 L 725.7 6.7 L 716.3 6.1 L 702.8 5.0 L 694.2 4.2 L 686.0 3.2 L 678.1 2.2 L 670.5 1.0 L 663.2 -0.3 L 656.2 -1.8 L 649.5 -3.4 L 643.1 -5.1 L 636.9 -7.1 L 630.9 -9.2 L 625.2 -11.4 L 619.8 -13.8 L 614.7 -16.4 L 609.8 -19.1 L 605.2 -22.0 L 600.9 -25.0 L 596.7 -28.3 L 592.7 -31.7 L 589.0 -35.3 L 585.4 -39.1 L 582.1 -43.1 L 578.9 -47.3 L 575.9 -51.6 L 573.1 -56.2 L 570.6 -60.9 L 568.2 -65.9 L 566.0 -71.0 L 564.0 -76.3 L 562.1 -81.9 L 560.4 -87.7 L 558.0 -96.8 L 556.6 -103.1 L 555.3 -109.7 L 554.2 -116.5 L 553.2 -123.5 L 552.3 -130.8 L 551.6 -138.3 L 551.0 -146.0 L 550.3 -158.1 L 549.6 -170.8 L 549.1 -184.1 L 548.7 -198.1 L 548.3 -217.8 L 548.1 -238.6 L 548.0 -260.5 L 548.1 -276.7 L 548.4 -297.2 L 548.7 -311.9 L 549.3 -330.4 L 549.8 -343.5 L 550.7 -360.1 L 551.6 -371.7 L 552.3 -379.2 L 553.2 -386.5 L 554.7 -396.9 L 555.9 -403.6 L 558.0 -413.2 L 560.4 -422.3 L 563.0 -430.9 L 564.0 -433.7 L 566.0 -439.0 L 567.1 -441.6 L 569.4 -446.6 L 570.6 -449.1 L 573.1 -453.8 L 575.9 -458.4 L 577.4 -460.6 L 580.5 -464.8 L 582.1 -466.9 L 583.7 -468.9 L 587.2 -472.8 L 590.8 -476.5 L 592.7 -478.3 L 596.7 -481.7 L 598.8 -483.4 L 603.0 -486.5 L 605.2 -488.0 L 607.5 -489.5 L 612.2 -492.3 L 614.7 -493.6 L 619.8 -496.2 L 625.2 -498.6 L 628.0 -499.7 L 633.9 -501.9 L 636.9 -502.9 L 639.9 -503.9 L 646.3 -505.8 L 652.8 -507.5 L 659.7 -509.0 L 666.8 -510.4 L 670.5 -511.0 L 682.0 -512.7 L 690.0 -513.7 L 698.5 -514.6 L 707.2 -515.4 L 716.3 -516.1 L 725.7 -516.7 L 735.5 -517.2 L 745.6 -517.5 L 756.1 -517.8 L 772.4 -518.0 L 783.6 -518.0 L 794.6 -517.9 L 805.2 -517.7 L 815.5 -517.4 L 825.4 -516.9 L 835.0 -516.4 L 848.8 -515.4 L 861.8 -514.2 L 870.0 -513.2 L 877.9 -512.2 L 885.5 -511.0 L 892.8 -509.7 L 896.3 -509.0 L 903.2 -507.5 L 909.8 -505.8 L 916.2 -503.9 L 919.2 -502.9 L 925.2 -500.8 L 928.1 -499.7 L 933.7 -497.4 L 939.0 -494.9 L 941.6 -493.6 L 946.6 -490.9 L 948.9 -489.5 L 951.3 -488.0 L 955.7 -485.0 L 959.9 -481.7 L 961.9 -480.0 L 963.9 -478.3 L 967.7 -474.7 L 971.3 -470.9 L 973.0 -468.9 L 976.3 -464.8 L 977.9 -462.7 L 980.8 -458.4 L 982.2 -456.1 L 983.5 -453.8 L 986.1 -449.1 L 987.3 -446.6 L 989.5 -441.6 L 990.5 -439.0 L 992.4 -433.7 L 995.1 -425.2 L 996.8 -419.3 L 998.3 -413.2 L 999.7 -406.9 L 1000.9 -400.3 L 1002.1 -393.5 L 1003.1 -386.5 L 1004.0 -379.2 L 1004.8 -371.7 L 1005.5 -364.0 L 1006.4 -351.9 L 1006.9 -343.5 L 1007.5 -330.4 L 1008.3 -307.1 L 1008.8 -281.9 L 1009.0 -266.0 L 1009.0 -249.5 L 1008.8 -222.9 L 1008.2 -198.1 L 1007.7 -184.1 L 1007.1 -170.8 L 1006.4 -158.1 L 1005.8 -149.9 L 1005.2 -142.1 L 1004.5 -134.5 L 1003.6 -127.1 L 1002.6 -120.0 L 1001.5 -113.1 L 1000.3 -106.4 L 999.0 -99.9 L 997.5 -93.7 L 995.1 -84.8 L 993.4 -79.1 L 990.5 -71.0 L 988.4 -65.9 L 987.3 -63.4 L 984.8 -58.5 L 982.2 -53.9 L 979.4 -49.4 L 976.3 -45.2 L 973.0 -41.1 L 969.5 -37.2 L 967.7 -35.3 L 963.9 -31.7 L 959.9 -28.3 L 957.8 -26.6 L 953.5 -23.5 L 948.9 -20.5 L 944.1 -17.7 L 941.6 -16.4 L 936.4 -13.8 L 933.7 -12.6 L 928.1 -10.3 L 922.3 -8.1 L 916.2 -6.1 L 909.8 -4.2 L 903.2 -2.5 L 896.3 -1.0 L 892.8 -0.3 L 885.5 1.0 L 874.0 2.7 L 866.0 3.7 L 853.2 5.0 L 839.7 6.1 L 830.3 6.7 L 815.5 7.4 L 805.2 7.7 L 789.1 7.9 L 778.0 8.0 Z M 778.0 -53.0 L 788.1 -53.1 L 797.7 -53.2 L 807.0 -53.5 L 815.9 -53.9 L 824.4 -54.4 L 832.5 -55.0 L 840.2 -55.8 L 847.5 -56.6 L 854.4 -57.6 L 860.9 -58.7 L 867.1 -59.9 L 872.8 -61.2 L 878.3 -62.7 L 883.4 -64.4 L 885.9 -65.3 L 890.6 -67.3 L 895.0 -69.5 L 899.1 -71.9 L 902.9 -74.4 L 904.7 -75.8 L 908.1 -78.7 L 909.7 -80.2 L 912.6 -83.4 L 915.3 -86.7 L 916.5 -88.5 L 918.8 -92.2 L 920.9 -96.2 L 922.9 -100.6 L 924.7 -105.2 L 926.4 -110.1 L 928.0 -115.3 L 929.4 -120.9 L 930.7 -126.7 L 931.3 -129.7 L 932.8 -139.3 L 934.0 -149.5 L 935.3 -164.3 L 936.3 -180.6 L 937.1 -198.4 L 937.6 -217.7 L 937.9 -238.5 L 938.0 -260.6 L 937.8 -282.1 L 937.4 -302.0 L 936.7 -320.5 L 935.8 -337.4 L 934.7 -352.9 L 934.0 -360.0 L 933.2 -366.8 L 931.8 -376.5 L 930.7 -382.6 L 929.4 -388.5 L 928.7 -391.3 L 927.2 -396.7 L 926.4 -399.3 L 925.6 -401.8 L 923.8 -406.7 L 921.9 -411.3 L 920.9 -413.5 L 918.8 -417.6 L 916.5 -421.5 L 915.3 -423.3 L 912.6 -426.9 L 909.7 -430.2 L 906.5 -433.2 L 904.7 -434.7 L 901.1 -437.5 L 897.1 -440.0 L 892.8 -442.3 L 890.6 -443.4 L 885.9 -445.4 L 883.4 -446.3 L 878.3 -447.9 L 872.8 -449.4 L 870.0 -450.0 L 864.1 -451.2 L 854.4 -452.7 L 843.9 -454.0 L 832.5 -455.1 L 820.2 -455.9 L 807.0 -456.5 L 792.9 -456.9 L 778.0 -457.0 L 763.1 -456.9 L 749.0 -456.5 L 735.8 -455.9 L 723.5 -455.1 L 712.1 -454.0 L 701.6 -452.7 L 691.9 -451.2 L 686.0 -450.0 L 683.2 -449.4 L 677.7 -447.9 L 672.6 -446.3 L 667.7 -444.4 L 663.2 -442.3 L 658.9 -440.0 L 654.9 -437.5 L 651.3 -434.7 L 647.9 -431.7 L 646.3 -430.2 L 643.4 -426.9 L 640.7 -423.3 L 638.3 -419.6 L 636.1 -415.6 L 635.1 -413.5 L 633.1 -409.0 L 631.3 -404.3 L 629.7 -399.3 L 628.1 -394.0 L 627.4 -391.3 L 626.1 -385.6 L 625.0 -379.6 L 624.0 -373.4 L 623.2 -366.8 L 622.5 -360.0 L 621.6 -349.1 L 620.9 -337.4 L 620.5 -329.1 L 620.0 -316.0 L 619.7 -306.8 L 619.3 -292.2 L 619.1 -276.9 L 619.0 -260.6 L 619.0 -243.9 L 619.2 -227.9 L 619.4 -212.7 L 620.0 -193.8 L 620.5 -180.6 L 620.9 -172.3 L 621.6 -160.5 L 622.2 -153.1 L 622.8 -146.0 L 623.6 -139.3 L 624.5 -132.8 L 625.6 -126.7 L 626.8 -120.9 L 628.1 -115.3 L 629.7 -110.1 L 631.3 -105.2 L 632.2 -102.8 L 634.1 -98.4 L 635.1 -96.2 L 637.2 -92.2 L 639.5 -88.5 L 640.7 -86.7 L 643.4 -83.4 L 644.8 -81.8 L 647.9 -78.7 L 649.6 -77.2 L 651.3 -75.8 L 655.0 -73.1 L 659.0 -70.6 L 661.2 -69.5 L 663.3 -68.4 L 668.0 -66.3 L 672.9 -64.4 L 675.5 -63.5 L 680.8 -61.9 L 683.6 -61.2 L 686.5 -60.5 L 692.5 -59.3 L 698.9 -58.1 L 705.6 -57.1 L 716.5 -55.8 L 728.1 -54.7 L 736.4 -54.1 L 745.0 -53.7 L 758.6 -53.2 L 768.1 -53.1 L 778.0 -53.0 Z M 1362.0 8.0 L 1351.9 7.9 L 1342.1 7.7 L 1332.6 7.4 L 1323.4 6.9 L 1314.6 6.2 L 1306.0 5.4 L 1297.8 4.5 L 1289.8 3.4 L 1282.2 2.2 L 1274.9 0.8 L 1267.9 -0.7 L 1261.2 -2.3 L 1254.7 -4.2 L 1248.5 -6.2 L 1242.5 -8.3 L 1236.7 -10.6 L 1231.1 -13.1 L 1225.8 -15.8 L 1220.7 -18.6 L 1215.8 -21.6 L 1211.1 -24.7 L 1206.7 -28.0 L 1202.5 -31.5 L 1198.5 -35.1 L 1194.7 -38.9 L 1191.1 -42.9 L 1187.7 -47.0 L 1184.4 -51.2 L 1181.4 -55.6 L 1178.5 -60.2 L 1175.9 -64.9 L 1173.4 -69.7 L 1172.2 -72.2 L 1170.0 -77.3 L 1168.0 -82.5 L 1165.2 -90.7 L 1163.5 -96.4 L 1162.0 -102.3 L 1159.8 -111.5 L 1158.4 -117.9 L 1156.6 -127.8 L 1155.1 -138.2 L 1154.2 -145.4 L 1153.4 -152.7 L 1152.3 -164.2 L 1151.4 -176.0 L 1150.7 -188.2 L 1150.1 -200.7 L 1149.6 -213.7 L 1149.3 -227.1 L 1149.0 -245.5 L 1149.0 -260.0 L 1149.2 -274.7 L 1149.5 -289.0 L 1149.9 -302.7 L 1150.6 -315.9 L 1151.4 -328.7 L 1152.4 -340.9 L 1153.6 -352.7 L 1154.9 -364.0 L 1156.0 -371.3 L 1157.8 -381.9 L 1159.1 -388.7 L 1160.6 -395.4 L 1163.1 -405.0 L 1164.8 -411.2 L 1166.7 -417.2 L 1169.8 -425.9 L 1173.2 -434.2 L 1175.6 -439.5 L 1176.8 -442.1 L 1179.5 -447.1 L 1180.9 -449.5 L 1183.8 -454.2 L 1186.8 -458.7 L 1190.1 -463.0 L 1191.7 -465.0 L 1195.2 -469.0 L 1197.0 -471.0 L 1198.8 -472.8 L 1202.5 -476.5 L 1204.5 -478.2 L 1208.5 -481.5 L 1210.6 -483.1 L 1214.9 -486.2 L 1219.3 -489.1 L 1224.0 -491.9 L 1228.9 -494.5 L 1231.4 -495.8 L 1236.6 -498.2 L 1239.2 -499.4 L 1244.7 -501.6 L 1250.3 -503.7 L 1259.2 -506.5 L 1265.4 -508.2 L 1271.7 -509.8 L 1281.7 -511.9 L 1292.2 -513.6 L 1303.4 -515.1 L 1315.0 -516.3 L 1323.1 -516.9 L 1331.5 -517.4 L 1344.5 -517.8 L 1353.4 -518.0 L 1361.1 -518.0 L 1370.6 -517.9 L 1380.2 -517.7 L 1396.5 -517.0 L 1406.4 -516.5 L 1416.5 -515.9 L 1426.7 -515.1 L 1436.9 -514.2 L 1446.8 -513.2 L 1456.3 -512.1 L 1471.0 -510.2 L 1479.3 -508.9 L 1484.5 -508.0 L 1492.0 -506.5 L 1499.0 -505.0 L 1499.0 -446.0 L 1487.7 -448.1 L 1475.4 -450.0 L 1462.1 -451.7 L 1448.0 -453.2 L 1433.0 -454.5 L 1415.4 -455.7 L 1401.4 -456.4 L 1387.9 -456.9 L 1375.0 -457.0 L 1362.3 -456.9 L 1350.2 -456.4 L 1338.8 -455.7 L 1328.0 -454.7 L 1317.9 -453.4 L 1308.4 -451.8 L 1299.5 -449.9 L 1294.0 -448.5 L 1291.3 -447.7 L 1286.2 -446.1 L 1281.3 -444.2 L 1276.6 -442.1 L 1274.3 -441.0 L 1270.0 -438.7 L 1265.9 -436.1 L 1263.9 -434.7 L 1260.2 -431.9 L 1256.6 -428.8 L 1255.0 -427.2 L 1251.8 -423.9 L 1248.9 -420.3 L 1247.5 -418.5 L 1246.2 -416.6 L 1243.6 -412.6 L 1241.2 -408.3 L 1240.1 -406.1 L 1237.9 -401.4 L 1235.8 -396.4 L 1233.9 -391.2 L 1233.0 -388.4 L 1232.2 -385.7 L 1230.5 -379.9 L 1229.1 -373.8 L 1227.1 -364.2 L 1226.0 -357.5 L 1224.5 -346.8 L 1223.3 -335.4 L 1222.2 -323.1 L 1221.4 -310.2 L 1220.9 -301.1 L 1220.4 -286.8 L 1220.1 -271.8 L 1220.0 -256.0 L 1220.0 -244.9 L 1220.3 -228.9 L 1220.6 -218.8 L 1221.1 -204.2 L 1221.9 -190.5 L 1222.9 -177.7 L 1223.7 -169.6 L 1224.5 -161.9 L 1226.0 -151.0 L 1227.1 -144.2 L 1228.4 -137.6 L 1229.8 -131.4 L 1231.4 -125.4 L 1233.1 -119.7 L 1235.0 -114.3 L 1236.0 -111.7 L 1238.1 -106.7 L 1240.3 -102.0 L 1242.7 -97.5 L 1245.3 -93.4 L 1248.0 -89.5 L 1250.9 -85.9 L 1254.0 -82.4 L 1257.4 -79.2 L 1261.0 -76.2 L 1264.8 -73.5 L 1268.9 -70.9 L 1273.2 -68.5 L 1277.8 -66.4 L 1282.5 -64.4 L 1287.5 -62.7 L 1292.8 -61.2 L 1298.3 -59.9 L 1304.1 -58.7 L 1313.3 -57.1 L 1319.9 -56.2 L 1326.8 -55.4 L 1333.9 -54.7 L 1345.3 -53.9 L 1353.3 -53.5 L 1361.5 -53.2 L 1374.5 -53.0 L 1384.2 -53.0 L 1394.9 -53.2 L 1405.8 -53.6 L 1417.0 -54.1 L 1428.4 -54.8 L 1440.1 -55.7 L 1451.8 -56.8 L 1463.0 -58.0 L 1473.9 -59.3 L 1484.4 -60.8 L 1494.4 -62.3 L 1504.0 -64.0 L 1504.0 -5.0 L 1497.2 -3.5 L 1490.0 -2.0 L 1484.9 -1.1 L 1476.8 0.2 L 1471.1 1.0 L 1462.2 2.1 L 1452.8 3.2 L 1442.9 4.2 L 1432.6 5.1 L 1422.4 5.9 L 1412.2 6.5 L 1402.1 7.0 L 1392.0 7.5 L 1381.9 7.8 L 1371.9 7.9 L 1362.0 8.0 Z M 2052.6 -317.4 L 2024.8 -389.1 L 2022.8 -393.8 L 2020.2 -398.9 L 2017.7 -403.3 L 2014.7 -408.1 L 2012.4 -411.3 L 2010.1 -414.5 L 2007.6 -417.5 L 2004.7 -420.8 L 2002.0 -423.6 L 1998.9 -426.7 L 1996.0 -429.2 L 1992.7 -432.0 L 1989.7 -434.3 L 1986.2 -436.8 L 1983.1 -438.8 L 1979.5 -441.0 L 1976.2 -442.8 L 1972.5 -444.6 L 1968.7 -446.3 L 1965.0 -447.8 L 1960.3 -449.4 L 1955.5 -450.8 L 1950.2 -452.1 L 1944.3 -453.3 L 1938.3 -454.2 L 1931.5 -455.0 L 1924.7 -455.7 L 1916.8 -456.2 L 1907.6 -456.6 L 1897.5 -456.8 L 1885.7 -457.0 L 1871.3 -457.0 L 1844.5 -457.0 L 1831.0 -456.9 L 1819.1 -456.6 L 1808.7 -456.2 L 1802.3 -455.8 L 1796.6 -455.3 L 1790.7 -454.7 L 1785.4 -454.0 L 1780.5 -453.2 L 1775.6 -452.3 L 1771.1 -451.2 L 1766.6 -450.0 L 1762.4 -448.7 L 1758.5 -447.2 L 1755.0 -445.7 L 1751.3 -444.0 L 1748.0 -442.1 L 1744.8 -440.1 L 1741.8 -437.9 L 1738.9 -435.6 L 1735.9 -432.8 L 1733.0 -429.8 L 1730.3 -426.6 L 1727.6 -423.0 L 1725.0 -419.2 L 1722.7 -415.3 L 1720.6 -411.0 L 1718.5 -406.5 L 1716.6 -402.0 L 1714.9 -397.2 L 1713.3 -392.0 L 1711.7 -386.5 L 1710.3 -380.5 L 1709.1 -374.8 L 1708.0 -368.6 L 1707.0 -362.1 L 1706.2 -355.7 L 1705.6 -349.7 L 1705.0 -343.2 L 1704.5 -336.3 L 1704.0 -328.8 L 1703.7 -320.5 L 1703.2 -303.4 L 1703.1 -290.9 L 1703.0 -276.1 L 1703.1 -222.7 L 1703.3 -201.2 L 1703.6 -191.7 L 1703.9 -183.2 L 1704.7 -170.1 L 1705.8 -158.0 L 1707.1 -147.3 L 1707.9 -142.0 L 1708.8 -137.0 L 1709.7 -132.3 L 1710.7 -127.8 L 1711.7 -123.5 L 1713.0 -119.0 L 1714.3 -114.7 L 1715.7 -110.6 L 1717.1 -106.8 L 1718.6 -103.1 L 1720.2 -99.7 L 1722.0 -96.1 L 1723.9 -92.8 L 1725.8 -89.6 L 1727.8 -86.7 L 1729.8 -83.9 L 1732.0 -81.4 L 1734.3 -78.7 L 1736.6 -76.5 L 1739.1 -74.2 L 1741.5 -72.3 L 1744.3 -70.3 L 1747.1 -68.4 L 1749.9 -66.8 L 1753.1 -65.1 L 1756.2 -63.7 L 1760.9 -61.8 L 1766.2 -60.1 L 1771.5 -58.7 L 1777.5 -57.3 L 1783.7 -56.2 L 1790.7 -55.3 L 1797.9 -54.5 L 1806.2 -53.9 L 1817.0 -53.4 L 1829.6 -53.1 L 1844.5 -53.0 L 1871.3 -53.0 L 1887.4 -53.1 L 1900.0 -53.2 L 1910.6 -53.5 L 1919.3 -54.0 L 1925.4 -54.4 L 1931.5 -55.0 L 1937.1 -55.6 L 1942.7 -56.5 L 1947.8 -57.4 L 1952.4 -58.4 L 1957.1 -59.6 L 1961.4 -60.9 L 1965.3 -62.3 L 1969.6 -64.1 L 1973.9 -66.0 L 1978.1 -68.2 L 1982.2 -70.6 L 1985.8 -72.9 L 1989.7 -75.7 L 1993.1 -78.3 L 1995.6 -80.4 L 1998.1 -82.6 L 2002.4 -86.8 L 2004.7 -89.2 L 2006.9 -91.7 L 2010.7 -96.4 L 2012.7 -99.1 L 2014.7 -101.9 L 2018.0 -107.1 L 2021.0 -112.6 L 2023.7 -118.3 L 2025.9 -123.6 L 2135.9 -408.1 L 2138.2 -413.6 L 2140.4 -418.3 L 2142.8 -422.9 L 2145.2 -427.5 L 2147.9 -432.0 L 2150.6 -436.4 L 2153.5 -440.7 L 2156.6 -445.0 L 2160.3 -449.9 L 2163.7 -453.9 L 2167.2 -457.9 L 2170.8 -461.7 L 2175.1 -466.1 L 2179.0 -469.7 L 2183.0 -473.3 L 2187.2 -476.7 L 2192.1 -480.5 L 2196.5 -483.6 L 2201.0 -486.6 L 2205.6 -489.5 L 2211.0 -492.7 L 2215.8 -495.3 L 2220.7 -497.7 L 2225.7 -500.0 L 2230.7 -502.1 L 2235.4 -503.9 L 2240.7 -505.8 L 2245.5 -507.3 L 2251.1 -508.9 L 2256.2 -510.2 L 2262.1 -511.6 L 2267.4 -512.6 L 2273.7 -513.7 L 2279.4 -514.5 L 2285.4 -515.3 L 2291.5 -515.9 L 2298.0 -516.5 L 2304.9 -516.9 L 2312.2 -517.3 L 2320.2 -517.6 L 2330.7 -517.8 L 2344.0 -518.0 L 2390.1 -518.0 L 2409.2 -517.7 L 2417.4 -517.4 L 2425.9 -517.0 L 2433.8 -516.5 L 2442.0 -515.7 L 2449.8 -514.8 L 2457.2 -513.8 L 2463.5 -512.7 L 2470.4 -511.3 L 2477.0 -509.8 L 2483.4 -508.1 L 2490.3 -506.0 L 2496.9 -503.6 L 2503.3 -501.0 L 2509.5 -498.2 L 2515.5 -495.2 L 2521.3 -491.9 L 2526.8 -488.4 L 2532.1 -484.7 L 2537.1 -480.7 L 2541.9 -476.6 L 2546.5 -472.3 L 2551.3 -467.3 L 2555.3 -462.6 L 2559.5 -457.2 L 2563.1 -452.1 L 2566.8 -446.3 L 2569.9 -440.8 L 2573.1 -434.7 L 2576.1 -428.3 L 2578.8 -421.7 L 2581.1 -415.5 L 2583.4 -408.4 L 2585.5 -401.1 L 2587.3 -393.4 L 2589.0 -385.5 L 2590.5 -377.2 L 2591.8 -368.4 L 2592.9 -360.1 L 2593.8 -351.2 L 2594.5 -341.7 L 2595.1 -331.5 L 2595.6 -320.1 L 2596.0 -304.3 L 2596.2 -285.6 L 2596.2 -243.7 L 2596.1 -218.6 L 2595.9 -202.8 L 2595.6 -189.9 L 2595.1 -177.5 L 2594.4 -166.3 L 2593.4 -155.2 L 2592.2 -144.0 L 2590.6 -133.6 L 2588.9 -123.8 L 2586.8 -114.5 L 2584.5 -105.6 L 2583.2 -101.0 L 2581.7 -96.4 L 2580.2 -92.0 L 2578.8 -88.3 L 2576.3 -82.3 L 2574.0 -77.1 L 2571.4 -71.9 L 2568.7 -67.0 L 2565.8 -62.1 L 2562.8 -57.4 L 2559.5 -52.8 L 2556.1 -48.4 L 2552.5 -44.1 L 2548.7 -40.0 L 2544.7 -36.0 L 2541.0 -32.6 L 2536.6 -28.9 L 2532.1 -25.3 L 2527.3 -22.0 L 2522.9 -19.2 L 2517.8 -16.1 L 2513.2 -13.6 L 2507.7 -10.9 L 2502.7 -8.7 L 2496.9 -6.4 L 2491.6 -4.5 L 2486.2 -2.7 L 2480.6 -1.1 L 2474.1 0.5 L 2468.1 1.8 L 2462.0 3.0 L 2455.6 4.0 L 2448.1 5.0 L 2441.1 5.8 L 2433.8 6.5 L 2425.9 7.0 L 2416.3 7.4 L 2406.6 7.7 L 2395.2 7.9 L 2381.6 8.0 L 2350.7 8.0 L 2336.8 7.9 L 2322.7 7.7 L 2311.1 7.3 L 2302.9 6.8 L 2294.3 6.2 L 2287.1 5.5 L 2279.4 4.5 L 2272.1 3.4 L 2265.1 2.2 L 2258.4 0.7 L 2251.8 -0.9 L 2244.8 -2.9 L 2237.4 -5.3 L 2230.7 -7.9 L 2224.0 -10.8 L 2217.4 -13.9 L 2211.0 -17.3 L 2204.8 -21.0 L 2198.7 -24.9 L 2192.8 -29.0 L 2187.2 -33.3 L 2181.7 -37.9 L 2176.4 -42.7 L 2171.4 -47.6 L 2166.6 -52.8 L 2162.0 -58.1 L 2157.1 -64.3 L 2154.5 -67.8 L 2152.1 -71.4 L 2149.7 -75.1 L 2147.0 -79.5 L 2144.8 -83.3 L 2142.4 -87.8 L 2140.4 -91.7 L 2138.4 -96.1 L 2175.6 -192.6 L 2202.3 -123.6 L 2203.8 -119.8 L 2206.5 -114.1 L 2209.4 -108.6 L 2212.6 -103.3 L 2214.5 -100.5 L 2216.5 -97.8 L 2219.2 -94.2 L 2222.1 -90.8 L 2225.1 -87.6 L 2228.6 -84.1 L 2231.8 -81.1 L 2235.1 -78.3 L 2238.5 -75.7 L 2242.4 -72.9 L 2246.0 -70.6 L 2250.1 -68.2 L 2253.9 -66.3 L 2258.1 -64.3 L 2262.2 -62.6 L 2266.1 -61.2 L 2270.3 -59.8 L 2274.5 -58.7 L 2280.4 -57.4 L 2287.2 -56.2 L 2294.1 -55.3 L 2302.1 -54.5 L 2310.6 -53.9 L 2319.6 -53.5 L 2329.5 -53.2 L 2342.5 -53.0 L 2391.2 -53.1 L 2403.6 -53.2 L 2415.0 -53.6 L 2425.9 -54.2 L 2435.6 -55.1 L 2439.9 -55.6 L 2444.5 -56.2 L 2448.7 -56.9 L 2452.6 -57.7 L 2458.4 -59.1 L 2463.6 -60.6 L 2468.7 -62.4 L 2473.3 -64.3 L 2477.8 -66.5 L 2481.9 -68.9 L 2485.7 -71.6 L 2489.3 -74.4 L 2492.8 -77.6 L 2496.1 -81.1 L 2499.2 -85.0 L 2502.0 -89.0 L 2504.7 -93.4 L 2507.3 -98.2 L 2509.8 -103.5 L 2511.9 -108.9 L 2514.2 -115.6 L 2516.2 -122.5 L 2518.1 -130.0 L 2519.6 -137.6 L 2520.9 -145.9 L 2522.1 -155.0 L 2523.0 -164.3 L 2523.8 -174.6 L 2524.3 -184.2 L 2524.7 -195.1 L 2525.0 -206.6 L 2525.2 -220.9 L 2525.2 -239.9 L 2525.2 -281.0 L 2525.1 -297.5 L 2524.8 -311.3 L 2524.5 -321.6 L 2524.1 -330.7 L 2523.6 -339.0 L 2522.9 -347.3 L 2522.1 -355.0 L 2521.2 -362.1 L 2520.2 -368.6 L 2519.0 -375.4 L 2517.7 -381.7 L 2516.2 -387.5 L 2514.5 -393.4 L 2512.7 -399.0 L 2510.8 -404.1 L 2508.7 -408.8 L 2506.4 -413.5 L 2504.0 -417.9 L 2501.8 -421.3 L 2499.4 -424.7 L 2496.9 -427.9 L 2494.3 -430.8 L 2491.6 -433.5 L 2488.6 -436.2 L 2485.5 -438.6 L 2482.4 -440.7 L 2478.9 -442.9 L 2475.4 -444.7 L 2471.7 -446.4 L 2467.6 -448.0 L 2463.6 -449.4 L 2459.2 -450.7 L 2454.5 -451.9 L 2449.7 -452.9 L 2445.0 -453.7 L 2439.9 -454.4 L 2434.3 -455.1 L 2428.9 -455.6 L 2422.8 -456.0 L 2416.9 -456.3 L 2402.4 -456.8 L 2392.8 -456.9 L 2378.8 -457.0 L 2350.9 -457.0 L 2336.1 -456.9 L 2327.1 -456.8 L 2318.6 -456.5 L 2311.4 -456.2 L 2304.3 -455.7 L 2295.4 -454.9 L 2287.7 -453.9 L 2280.4 -452.6 L 2273.6 -451.1 L 2267.6 -449.3 L 2262.2 -447.4 L 2259.1 -446.1 L 2256.2 -444.9 L 2250.6 -442.0 L 2247.4 -440.2 L 2244.7 -438.5 L 2239.4 -434.9 L 2236.4 -432.7 L 2233.8 -430.6 L 2231.4 -428.5 L 2229.0 -426.3 L 2226.6 -424.0 L 2224.3 -421.6 L 2222.1 -419.2 L 2219.9 -416.6 L 2217.8 -414.0 L 2215.8 -411.3 L 2213.9 -408.6 L 2212.0 -405.7 L 2209.1 -400.9 L 2206.7 -396.4 L 2204.5 -391.7 L 2202.5 -387.0 L 2093.3 -104.3 L 2091.0 -98.7 L 2088.5 -93.2 L 2085.9 -87.8 L 2083.4 -83.3 L 2080.8 -78.8 L 2078.1 -74.3 L 2075.2 -70.0 L 2072.1 -65.7 L 2069.0 -61.5 L 2065.7 -57.4 L 2061.7 -52.8 L 2058.1 -48.9 L 2054.3 -45.1 L 2050.5 -41.5 L 2046.5 -37.9 L 2042.5 -34.5 L 2038.2 -31.1 L 2033.9 -27.9 L 2027.3 -23.4 L 2020.3 -19.1 L 2013.2 -15.2 L 2006.7 -11.9 L 1999.2 -8.6 L 1992.2 -5.8 L 1984.8 -3.3 L 1977.1 -1.1 L 1969.1 0.9 L 1960.8 2.6 L 1952.1 4.1 L 1942.9 5.3 L 1933.0 6.3 L 1923.4 6.9 L 1912.7 7.5 L 1900.3 7.8 L 1882.2 8.0 L 1846.6 8.0 L 1829.9 7.9 L 1817.8 7.6 L 1805.4 7.2 L 1794.5 6.5 L 1783.6 5.4 L 1773.5 4.2 L 1768.6 3.4 L 1763.2 2.4 L 1757.9 1.3 L 1752.7 0.2 L 1748.4 -0.9 L 1743.4 -2.3 L 1738.6 -3.8 L 1733.9 -5.4 L 1730.0 -6.9 L 1725.5 -8.7 L 1721.1 -10.6 L 1716.9 -12.7 L 1713.3 -14.5 L 1709.2 -16.8 L 1705.3 -19.2 L 1701.4 -21.6 L 1697.7 -24.2 L 1693.6 -27.3 L 1689.6 -30.5 L 1685.8 -33.8 L 1682.6 -36.9 L 1679.1 -40.4 L 1675.7 -44.1 L 1672.5 -47.9 L 1669.4 -51.8 L 1666.5 -55.9 L 1663.7 -60.0 L 1661.1 -64.2 L 1658.6 -68.6 L 1656.2 -73.1 L 1654.0 -77.6 L 1651.6 -82.9 L 1649.7 -87.7 L 1647.8 -92.7 L 1646.1 -97.7 L 1644.5 -102.9 L 1642.8 -108.9 L 1641.4 -114.5 L 1640.1 -120.1 L 1638.9 -126.0 L 1637.8 -132.0 L 1636.9 -138.3 L 1636.0 -144.9 L 1635.2 -151.7 L 1634.5 -158.8 L 1633.9 -166.3 L 1633.3 -174.3 L 1633.0 -181.8 L 1632.6 -191.1 L 1632.3 -201.4 L 1632.1 -213.4 L 1632.0 -226.6 L 1632.0 -283.4 L 1632.2 -299.8 L 1632.4 -312.6 L 1632.7 -322.5 L 1633.1 -331.5 L 1633.6 -339.7 L 1634.2 -347.5 L 1634.8 -354.8 L 1635.7 -362.6 L 1636.6 -370.1 L 1637.7 -377.2 L 1639.1 -384.8 L 1640.6 -392.0 L 1642.2 -399.0 L 1644.1 -405.8 L 1646.3 -412.9 L 1648.5 -419.2 L 1650.9 -425.3 L 1653.5 -431.2 L 1656.2 -436.9 L 1659.2 -442.5 L 1662.4 -447.9 L 1665.8 -453.1 L 1669.4 -458.2 L 1672.9 -462.6 L 1677.0 -467.3 L 1680.8 -471.4 L 1685.4 -475.7 L 1689.6 -479.5 L 1694.1 -483.1 L 1698.8 -486.5 L 1704.2 -490.2 L 1709.2 -493.2 L 1714.5 -496.1 L 1719.9 -498.8 L 1725.5 -501.3 L 1731.3 -503.6 L 1737.3 -505.7 L 1743.4 -507.7 L 1749.8 -509.4 L 1756.4 -511.0 L 1763.2 -512.4 L 1770.2 -513.7 L 1777.6 -514.7 L 1785.3 -515.6 L 1793.5 -516.4 L 1801.3 -516.9 L 1809.7 -517.4 L 1819.0 -517.7 L 1829.9 -517.9 L 1842.1 -518.0 L 1886.2 -518.0 L 1898.9 -517.8 L 1910.4 -517.5 L 1921.3 -517.1 L 1931.2 -516.4 L 1940.3 -515.6 L 1949.6 -514.4 L 1955.3 -513.6 L 1961.6 -512.5 L 1967.6 -511.2 L 1973.5 -509.9 L 1978.5 -508.6 L 1984.1 -506.9 L 1989.5 -505.1 L 1994.8 -503.2 L 2000.0 -501.1 L 2005.0 -498.9 L 2010.0 -496.5 L 2014.8 -494.0 L 2019.6 -491.3 L 2024.2 -488.6 L 2028.8 -485.6 L 2033.9 -482.1 L 2038.2 -478.9 L 2042.5 -475.5 L 2046.5 -472.1 L 2051.2 -467.9 L 2055.0 -464.3 L 2058.7 -460.5 L 2062.2 -456.6 L 2066.2 -451.9 L 2069.5 -447.8 L 2073.2 -442.9 L 2076.2 -438.6 L 2079.5 -433.5 L 2082.1 -429.0 L 2085.1 -423.7 L 2087.4 -419.1 L 2089.9 -413.9 Z M 2764.2 -0.0 L 2764.2 -510.0 L 2829.2 -510.0 L 2831.2 -434.0 L 2837.2 -434.0 L 2839.2 -438.1 L 2842.4 -444.2 L 2846.0 -450.1 L 2848.5 -453.9 L 2851.2 -457.7 L 2855.4 -463.2 L 2858.4 -466.7 L 2863.2 -472.0 L 2868.2 -477.0 L 2871.8 -480.2 L 2875.7 -483.4 L 2879.7 -486.4 L 2884.1 -489.2 L 2888.6 -492.0 L 2893.5 -494.6 L 2898.5 -497.2 L 2903.8 -499.6 L 2909.3 -501.8 L 2918.1 -505.0 L 2924.2 -507.0 L 2927.4 -507.9 L 2934.0 -509.7 L 2940.9 -511.3 L 2948.1 -512.7 L 2955.6 -513.9 L 2963.5 -515.0 L 2971.6 -515.9 L 2980.1 -516.7 L 2988.9 -517.3 L 2998.0 -517.7 L 3007.5 -517.9 L 3017.2 -518.0 L 3027.5 -517.9 L 3037.4 -517.6 L 3051.6 -516.9 L 3060.6 -516.2 L 3069.2 -515.3 L 3073.4 -514.7 L 3081.6 -513.6 L 3085.5 -512.9 L 3093.1 -511.4 L 3100.3 -509.8 L 3107.2 -508.0 L 3113.7 -506.0 L 3119.9 -503.8 L 3125.9 -501.5 L 3131.6 -499.0 L 3137.0 -496.3 L 3142.2 -493.4 L 3147.0 -490.3 L 3151.7 -487.1 L 3153.9 -485.5 L 3158.1 -482.0 L 3162.1 -478.3 L 3165.8 -474.5 L 3169.2 -470.5 L 3172.4 -466.3 L 3175.5 -461.9 L 3178.3 -457.3 L 3180.9 -452.4 L 3183.4 -447.3 L 3185.6 -442.0 L 3187.7 -436.5 L 3188.7 -433.7 L 3190.5 -427.8 L 3192.1 -421.8 L 3192.8 -418.7 L 3193.5 -415.5 L 3194.7 -409.0 L 3196.3 -398.8 L 3197.2 -391.8 L 3198.1 -384.6 L 3198.8 -377.1 L 3199.5 -369.4 L 3200.2 -357.6 L 3200.6 -349.4 L 3200.9 -340.9 L 3201.1 -332.3 L 3201.2 -319.0 L 3201.2 -0.0 L 3130.2 -0.0 L 3130.2 -296.0 L 3130.1 -309.5 L 3129.8 -326.3 L 3129.1 -341.8 L 3128.1 -356.0 L 3127.5 -362.6 L 3126.8 -368.9 L 3126.1 -374.9 L 3125.2 -380.5 L 3123.8 -388.5 L 3122.6 -393.5 L 3121.9 -395.9 L 3120.5 -400.5 L 3119.0 -405.0 L 3118.2 -407.1 L 3116.4 -411.2 L 3114.5 -415.0 L 3113.4 -416.8 L 3112.4 -418.6 L 3110.1 -422.0 L 3109.0 -423.6 L 3106.5 -426.6 L 3103.9 -429.4 L 3101.1 -432.0 L 3098.1 -434.5 L 3094.9 -436.8 L 3093.3 -437.9 L 3089.8 -439.9 L 3086.2 -441.8 L 3084.3 -442.7 L 3080.3 -444.4 L 3076.2 -445.9 L 3071.9 -447.3 L 3069.7 -447.9 L 3062.7 -449.5 L 3057.8 -450.4 L 3052.6 -451.2 L 3047.1 -452.0 L 3041.4 -452.7 L 3035.3 -453.2 L 3029.0 -453.7 L 3015.5 -454.5 L 3000.9 -454.9 L 2989.2 -455.0 L 2984.5 -455.0 L 2975.3 -454.8 L 2966.4 -454.3 L 2962.1 -454.0 L 2953.8 -453.3 L 2945.8 -452.4 L 2938.2 -451.2 L 2934.6 -450.5 L 2931.0 -449.8 L 2924.1 -448.2 L 2917.5 -446.4 L 2914.4 -445.4 L 2911.3 -444.4 L 2905.5 -442.2 L 2900.0 -439.8 L 2894.8 -437.2 L 2889.9 -434.4 L 2885.2 -431.5 L 2882.9 -429.9 L 2878.6 -426.7 L 2874.6 -423.4 L 2870.9 -419.9 L 2869.1 -418.1 L 2865.7 -414.3 L 2862.6 -410.4 L 2861.2 -408.3 L 2858.5 -404.2 L 2856.0 -399.8 L 2853.7 -395.3 L 2851.6 -390.7 L 2848.7 -383.4 L 2846.9 -378.4 L 2844.6 -370.5 L 2842.6 -362.4 L 2840.9 -353.9 L 2839.6 -345.0 L 2838.3 -332.7 L 2837.2 -320.0 L 2836.7 -313.4 L 2836.1 -303.3 L 2835.6 -289.4 L 2835.3 -275.1 L 2835.2 -264.0 L 2835.2 -0.0 Z" fill="#141414" fill-rule="nonzero"/>
</svg>
