<?xml version="1.0" encoding="UTF-8"?>
<svg viewBox="0.000 0.000 987.984 987.984" xmlns="http://www.w3.org/2000/svg">
  <path d="M 987.984 438.992 A 20.000 20.000 0 0 0 967.984 418.992 L 307.984 418.992 A 20.000 20.000 0 0 1 287.984 398.992 L 287.984 295.605 A 20.000 20.000 0 0 0 255.490 279.987 L 7.506 478.375 A 20.000 20.000 0 0 0 7.506 509.610 L 255.490 707.997 A 20.000 20.000 0 0 0 287.984 692.380 L 287.984 588.992 A 20.000 20.000 0 0 1 307.984 568.992 L 967.984 568.992 A 20.000 20.000 0 0 0 987.984 548.992 Z" fill="currentColor"/>
</svg>
